HIERARCHY
ROOT Hips
{
	OFFSET -0.179506 -22.333345 2.821913
	CHANNELS 6 Xposition Yposition Zposition Zrotation Yrotation Xrotation 
	JOINT LeftUpLeg
	{
		OFFSET 6.951974 -9.140623 -0.681533
		CHANNELS 3 Zrotation Yrotation Xrotation
		JOINT LeftLeg
		{
			OFFSET 3.427654 -37.519855 -0.449580
			CHANNELS 3 Zrotation Yrotation Xrotation
			JOINT LeftFoot
			{
				OFFSET -1.359570 -39.796059 -4.369333
				CHANNELS 3 Zrotation Yrotation Xrotation
				JOINT LeftToe
				{
					OFFSET 2.635814 -5.579078 11.928840
					CHANNELS 3 Zrotation Yrotation Xrotation
					End Site
					{
						OFFSET 0.000000 0.000000 0.000000
					}
				}
			}
		}
	}
	JOINT RightUpLeg
	{
		OFFSET -6.767048 -9.052170 -0.431982
		CHANNELS 3 Zrotation Yrotation Xrotation
		JOINT RightLeg
		{
			OFFSET -3.829005 -38.256897 -0.885003
			CHANNELS 3 Zrotation Yrotation Xrotation
			JOINT RightFoot
			{
				OFFSET 1.577377 -39.841461 -4.231180
				CHANNELS 3 Zrotation Yrotation Xrotation
				JOINT RightToe
				{
					OFFSET -2.537174 -4.814398 12.334795
					CHANNELS 3 Zrotation Yrotation Xrotation
					End Site
					{
						OFFSET 0.000000 0.000000 0.000000
					}
				}
			}
		}
	}
	JOINT Spine
	{
		OFFSET -0.253288 10.896323 -2.669631
		CHANNELS 3 Zrotation Yrotation Xrotation
		JOINT Spine1
		{
			OFFSET 0.548704 13.518043 0.109247
			CHANNELS 3 Zrotation Yrotation Xrotation
			JOINT Spine2
			{
				OFFSET 0.145701 5.292222 2.542457
				CHANNELS 3 Zrotation Yrotation Xrotation
				JOINT Neck
				{
					OFFSET -0.277840 21.387037 -4.285703
					CHANNELS 3 Zrotation Yrotation Xrotation
					JOINT Head
					{
						OFFSET 0.515184 6.496960 5.134897
						CHANNELS 3 Zrotation Yrotation Xrotation
						End Site
						{
							OFFSET 0.000000 0.000000 0.000000
						}
					}
				}
				JOINT LeftShoulder
				{
					OFFSET 7.884473 12.174932 -3.408961
					CHANNELS 3 Zrotation Yrotation Xrotation
					JOINT LeftArm
					{
						OFFSET 9.097692 3.046888 -0.886815
						CHANNELS 3 Zrotation Yrotation Xrotation
						JOINT LeftForeArm
						{
							OFFSET 25.961220 -1.277207 -2.745643
							CHANNELS 3 Zrotation Yrotation Xrotation
							JOINT LeftHand
							{
								OFFSET 24.923361 0.898606 -0.117091
								CHANNELS 3 Zrotation Yrotation Xrotation
								End Site
								{
									OFFSET 0.000000 0.000000 0.000000
								}
							}
						}
					}
				}
				JOINT RightShoulder
				{
					OFFSET -8.175920 11.883285 -3.861528
					CHANNELS 3 Zrotation Yrotation Xrotation
					JOINT RightArm
					{
						OFFSET -9.601238 3.255117 -0.914307
						CHANNELS 3 Zrotation Yrotation Xrotation
						JOINT RightForeArm
						{
							OFFSET -25.374195 -1.332924 -2.140099
							CHANNELS 3 Zrotation Yrotation Xrotation
							JOINT RightHand
							{
								OFFSET -25.529810 0.777228 -0.555919
								CHANNELS 3 Zrotation Yrotation Xrotation
								End Site
								{
									OFFSET 0.000000 0.000000 0.000000
								}
							}
						}
					}
				}
			}
		}
	}
}
MOTION
Frames: 11
Frame Time: 0.033333
-31.987055 15.938601 45.234367 176.834969 0.437025 89.899003 33.551757 38.944832 -79.096352 -3.584995 15.033208 131.204612 -8.295203 -13.006426 -31.876879 nan nan nan -25.476390 -42.223523 -83.333449 2.786579 -10.296252 132.211525 6.968086 27.275477 -24.629884 nan nan nan 2.668392 0.737652 83.694918 -1.090412 -2.242219 -12.313772 4.958703 -2.058944 -8.186653 -6.717974 4.938965 -26.676388 13.741106 -5.742433 -21.510809 -15.633348 -39.340043 -4.225712 -37.023119 -24.055220 -2.776077 -8.299862 -30.540040 21.115492 15.936516 -10.066963 -6.983594 17.076507 37.701576 1.700679 36.474100 30.506944 -7.528069 10.393199 30.220813 21.625323 -14.702763 12.667145 7.057961 
-31.994114 15.907954 45.243626 176.857365 0.342316 90.024292 33.635100 38.864118 -79.026024 -3.129642 14.826965 131.362688 -8.673401 -13.829090 -31.819840 nan nan nan -25.536329 -42.292221 -83.425953 2.567641 -10.024514 132.298295 7.183882 27.724876 -24.607932 nan nan nan 2.233673 0.889745 83.978812 -1.182485 -1.632150 -12.253320 4.980474 -1.992033 -8.131687 -6.259358 6.053690 -28.878565 12.742276 -7.178635 -20.507187 -13.923453 -37.944788 -5.922418 -39.174390 -25.793408 -2.208892 -7.785534 -29.625141 22.898796 14.264319 -11.319330 -7.011050 15.784910 35.582462 0.011020 38.204982 32.004813 -6.544768 10.571545 29.756114 23.061695 -15.161008 13.506838 5.048880 
-31.995184 15.878134 45.277283 176.852251 0.353852 90.027458 33.631522 38.842297 -79.000645 -3.154759 14.855021 131.328855 -8.776384 -13.865041 -31.772774 nan nan nan -25.561925 -42.297198 -83.356822 2.548807 -10.076453 132.261620 7.193999 27.775990 -24.623896 nan nan nan 2.160139 0.933243 84.050481 -1.158647 -1.603946 -12.342492 4.966156 -1.937508 -7.977245 -6.265374 6.177361 -29.220309 12.700052 -7.412755 -20.428309 -13.638891 -37.846959 -6.134834 -39.357241 -25.963032 -2.007441 -7.775936 -29.560248 22.712807 14.833688 -11.467566 -7.487534 15.688826 35.476129 -0.215043 38.163037 32.149421 -6.389563 10.730606 29.615674 23.090234 -15.538025 13.546609 4.793000 
-32.010391 15.868245 45.293949 176.861125 0.359932 89.968906 33.692000 38.802003 -78.922459 -3.141317 14.845032 131.328833 -8.950872 -13.569330 -31.915639 nan nan nan -25.600044 -42.318021 -83.268682 2.596940 -10.112329 132.236357 7.274140 27.761710 -24.599042 nan nan nan 2.182936 0.947232 84.086979 -1.137546 -1.583505 -12.310870 4.947788 -1.912600 -7.849946 -6.308864 6.168322 -29.428991 12.709482 -7.475828 -20.461082 -13.375295 -37.731524 -6.374558 -39.656247 -26.100823 -1.657718 -7.987661 -29.640019 22.298781 16.309546 -11.295150 -8.370219 15.589699 35.363685 -0.468969 38.076186 32.187263 -6.200848 10.937469 29.569041 23.104837 -15.961624 13.544156 4.887554 
-31.986704 15.853872 45.283886 176.768949 0.324470 89.989001 33.762668 38.910313 -78.856839 -3.070710 14.828962 131.331739 -9.221419 -13.332888 -32.332421 nan nan nan -25.631338 -42.202534 -83.338991 2.527193 -10.124335 132.276808 7.384518 27.810667 -24.627262 nan nan nan 1.961232 1.123864 84.016491 -1.113516 -1.460813 -12.292637 4.958745 -1.871156 -7.794341 -6.225726 6.389269 -29.587541 12.621087 -7.634828 -20.367942 -13.431910 -37.687417 -6.362713 -39.422411 -26.169286 -1.721543 -7.856664 -29.608485 22.833596 15.340321 -11.604270 -7.847400 15.755546 35.263774 -0.460222 38.078542 32.248972 -6.115092 10.796551 29.606223 23.435174 -15.606003 13.525316 4.945612 
-31.931835 15.831266 45.266956 176.670325 0.322688 90.106234 33.721003 39.048919 -78.963338 -3.141054 14.849703 131.277372 -9.289237 -13.412506 -32.394487 nan nan nan -25.503095 -42.076574 -83.587882 2.416877 -10.157219 132.330581 7.383785 27.779452 -24.634563 nan nan nan 1.588085 1.363422 83.906378 -1.065895 -1.265479 -12.423124 5.070385 -1.755455 -7.704767 -6.217623 6.500562 -29.548826 12.613750 -7.726296 -20.377303 -13.464981 -37.636715 -6.308449 -39.390301 -26.321320 -1.829544 -7.871930 -29.405805 22.897923 14.264140 -11.551531 -7.465386 15.798515 35.177496 -0.390028 38.176491 32.374048 -6.044062 10.631153 29.507166 23.467387 -15.346766 13.294071 5.127343 
-31.909740 15.812327 45.274918 176.628708 0.319588 90.185940 33.667502 39.078838 -79.002716 -3.260219 14.875579 131.227791 -9.254941 -13.756949 -32.002963 nan nan nan -25.443257 -42.027518 -83.693222 2.359886 -10.165119 132.328165 7.325138 27.771527 -24.617680 nan nan nan 1.356266 1.468086 83.878803 -1.024824 -1.167890 -12.535495 5.162000 -1.681862 -7.678549 -6.268822 6.466811 -29.461548 12.653853 -7.711057 -20.342045 -13.432054 -37.657625 -6.281030 -39.484784 -26.349532 -1.921495 -7.860332 -29.366586 22.406545 14.005590 -11.381223 -7.297769 15.759167 35.238073 -0.323559 38.171003 32.390747 -6.047033 10.584006 29.476240 23.251708 -15.196676 13.105956 5.372608 
-31.913740 15.817325 45.322021 176.617132 0.234493 90.145463 33.565657 39.036835 -78.910593 -3.257513 14.825798 131.173087 -9.187619 -13.741337 -31.942707 nan nan nan -25.456060 -42.046827 -83.677324 2.417442 -10.114715 132.284386 7.435529 27.808667 -24.531326 nan nan nan 1.312464 1.518781 84.053951 -1.020761 -1.206521 -12.644519 5.213504 -1.687240 -7.668782 -6.335515 6.329295 -29.493094 12.701920 -7.620820 -20.306975 -13.369266 -37.669084 -6.395155 -39.647428 -26.335027 -1.860971 -8.000477 -29.385638 21.920433 14.851170 -11.094809 -7.238322 15.711990 35.283240 -0.431554 38.252880 32.260831 -5.975086 10.500484 29.651770 22.825654 -15.180560 13.074567 5.609553 
-31.909840 15.805488 45.271973 176.594119 0.264727 90.216108 33.516152 39.146255 -79.159459 -3.251010 14.837541 131.167285 -8.874181 -13.572797 -32.259858 nan nan nan -25.325841 -42.049154 -83.881786 2.481786 -10.178375 132.321805 7.399922 27.742170 -24.555584 nan nan nan 1.178277 1.578809 83.793532 -0.963355 -1.118184 -12.554299 5.238292 -1.590716 -7.583972 -6.360043 6.227293 -29.346121 12.683196 -7.566128 -20.416033 -13.282614 -37.524258 -6.389859 -39.767338 -26.291704 -1.677828 -7.951051 -29.729095 22.263535 15.043458 -10.491976 -6.712341 15.674485 35.221384 -0.339819 38.283777 32.265233 -6.049690 10.458650 29.874351 22.752720 -14.733039 12.993530 5.408098 
-31.928383 15.754074 45.273041 176.602049 0.277698 90.396383 33.644327 39.140970 -79.144690 -3.137901 14.908789 131.243971 -9.023018 -13.600482 -31.973998 nan nan nan -25.309375 -42.059739 -83.972244 2.424772 -10.304659 132.314846 7.272886 27.744182 -24.654538 nan nan nan 1.023015 1.618998 83.479563 -0.912839 -0.982066 -12.352734 5.206289 -1.553234 -7.601416 -6.263743 6.448627 -29.716400 12.519584 -7.799346 -20.119186 -13.109409 -37.434649 -6.512518 -39.787303 -26.492688 -1.588406 -7.953727 -29.486786 22.365339 14.522905 -11.041328 -7.013520 15.610704 35.047175 -0.458888 38.374320 32.460586 -5.842446 10.439793 29.765936 22.888506 -14.581712 13.238909 5.242528 
-31.946077 15.723372 45.292614 176.618291 0.314656 90.489574 33.666613 39.096429 -79.177614 -3.056156 14.894658 131.302086 -9.025589 -13.715358 -31.755974 nan nan nan -25.286959 -42.074899 -83.976201 2.366577 -10.316091 132.292439 7.283318 27.907872 -24.628795 nan nan nan 1.003987 1.594735 83.335908 -0.900779 -0.969754 -12.276270 5.188589 -1.546839 -7.566476 -6.239298 6.607777 -29.897230 12.481403 -7.896834 -20.017332 -12.888131 -37.403734 -6.729802 -39.950408 -26.536724 -1.588481 -7.889095 -29.409530 22.210384 14.443371 -11.077222 -7.013261 15.525984 35.007525 -0.587228 38.414496 32.548703 -5.721041 10.562266 29.718408 23.008932 -14.885034 13.261028 4.965098 
